<svg xmlns="http://www.w3.org/2000/svg" viewBox="0 0 100 100" width="100" height="100">
  <!-- Yellow background circle -->
  <circle cx="50" cy="50" r="48" fill="#FFD700" stroke="#FFC700" stroke-width="2"/>
  
  <!-- Question mark -->
  <g fill="white">
    <!-- Top curve of question mark -->
    <path d="M 50 25 C 58 25 65 32 65 40 C 65 48 58 55 50 55 C 48 55 46 55 46 57 L 46 60 C 46 62 48 63 50 63 C 52 63 54 62 54 60 L 54 57 C 64 55 72 47 72 40 C 72 28 61 20 50 20 C 39 20 28 28 28 40 C 28 42 30 44 32 44 C 34 44 36 42 36 40 C 36 31 42 25 50 25 Z"/>
    
    <!-- Dot below question mark -->
    <circle cx="50" cy="75" r="4" fill="white"/>
  </g>
</svg>